<svg id="Group_8" data-name="Group 8" xmlns="http://www.w3.org/2000/svg" width="128.776" height="128.776" viewBox="0 0 128.776 128.776">
  <ellipse id="Ellipse_9" data-name="Ellipse 9" cx="64.388" cy="64.388" rx="64.388" ry="64.388" transform="translate(0 0)" fill="#4eaa41"/>
  <g id="Group_7" data-name="Group 7" transform="translate(22.733 23.458)">
    <g id="Group_6" data-name="Group 6" transform="translate(15.45 0.275)">
      <path id="Path_13" data-name="Path 13" d="M118,314.759a14.49,14.49,0,0,1-14.474-14.474,14.338,14.338,0,0,1,3.049-8.887,1.388,1.388,0,1,1,2.19,1.7,11.58,11.58,0,0,0-2.464,7.182,11.7,11.7,0,1,0,19.969-8.271,1.388,1.388,0,0,1,1.962-1.962A14.473,14.473,0,0,1,118,314.759Z" transform="translate(-84.581 -271.885)" fill="#fff"/>
      <path id="Path_14" data-name="Path 14" d="M144.573,328.385a1.388,1.388,0,0,1-1.381-1.256,25.2,25.2,0,0,0-1.72-7.593,1.393,1.393,0,0,1,.338-1.635l1.168-1.029a.472.472,0,0,0-.188,0l-1.587.31a1.4,1.4,0,0,1-.718-.05,20.889,20.889,0,0,0-4.536-.791,35.069,35.069,0,0,0-11.852,1.19,19.517,19.517,0,0,1-10.177,0,30.792,30.792,0,0,0-10.713-1.2,11.515,11.515,0,0,0-3.467.743,1.357,1.357,0,0,1-.865.111l-1.587-.31a.478.478,0,0,0-.189,0l1.17,1.029a1.385,1.385,0,0,1,.334,1.639,23.615,23.615,0,0,0-1.568,6.275,1.388,1.388,0,1,1-2.751-.363,29.757,29.757,0,0,1,1.416-6.115l-.557-.49a2.58,2.58,0,0,1-.659-3.137,3.039,3.039,0,0,1,3.337-1.557l1.183.232c1.521-.559,6.674-1.953,15.641.472a16.738,16.738,0,0,0,8.728,0,37.8,37.8,0,0,1,12.92-1.267,25.069,25.069,0,0,1,4.717.807l1.246-.244a3.038,3.038,0,0,1,3.337,1.557,2.576,2.576,0,0,1-.659,3.137l-.557.49a31.171,31.171,0,0,1,1.577,7.531,1.388,1.388,0,0,1-1.25,1.512C144.661,328.383,144.617,328.385,144.573,328.385Zm-1.45-11.643Z" transform="translate(-86.626 -266.653)" fill="#fff"/>
      <path id="Path_15" data-name="Path 15" d="M131.072,344.682a59.252,59.252,0,0,1-8.592-.776c-.428-.061-.846-.121-1.256-.177a16.236,16.236,0,0,0-4.417,0c-.643.088-1.294.188-1.923.284-4.648.71-9.452,1.443-16.664-1.189l-.133.039a3.068,3.068,0,0,1-3.515-1.294,2.564,2.564,0,0,1,.4-3.183l.728-.745a20.658,20.658,0,0,1-1.021-3.42,1.387,1.387,0,1,1,2.712-.585,14.459,14.459,0,0,0,1.176,3.606,1.4,1.4,0,0,1-.213,1.654l-1.283,1.313a.433.433,0,0,0,.24-.01l.574-.168a1.387,1.387,0,0,1,.881.034c6.776,2.566,11.112,1.9,15.7,1.2.639-.1,1.3-.2,1.964-.289a18.936,18.936,0,0,1,5.172,0c.415.056.839.117,1.272.178,5.038.72,11.307,1.613,18.453-1.093a1.391,1.391,0,0,1,.882-.034l.574.168a.433.433,0,0,0,.24.01L141.74,338.9a1.386,1.386,0,0,1-.21-1.662,13.276,13.276,0,0,0,1.027-2.973,1.388,1.388,0,1,1,2.7.66,19.728,19.728,0,0,1-.861,2.721l.728.745a2.561,2.561,0,0,1,.4,3.183A3.067,3.067,0,0,1,142,342.864l-.134-.039A31.187,31.187,0,0,1,131.072,344.682Z" transform="translate(-86.631 -262.466)" fill="#fff"/>
      <path id="Path_16" data-name="Path 16" d="M115.218,297.276a32.181,32.181,0,0,1-8.031-1.016,1.389,1.389,0,0,1-1.039-1.435l.2-3a11.955,11.955,0,0,1,3.236-7.415h0l5.282-5.587a11.89,11.89,0,0,1,10.844-3.536l2.512.465a11.889,11.889,0,0,1,7.478,4.716l6.63,9.115a1.388,1.388,0,0,1-1.723,2.067l-8.65-4.159a1.757,1.757,0,0,0-2.422,1.011l-1.985,5.76a1.388,1.388,0,0,1-.729.807A29.711,29.711,0,0,1,115.218,297.276ZM109,293.835a29.507,29.507,0,0,0,16.135-1.074l1.781-5.166a4.533,4.533,0,0,1,6.249-2.607l3.688,1.773-3.392-4.664a9.122,9.122,0,0,0-5.739-3.618l-2.512-.465a9.123,9.123,0,0,0-8.322,2.712l-5.282,5.587h0A9.18,9.18,0,0,0,109.116,292Zm1.6-8.476h0Z" transform="translate(-84.006 -275.082)" fill="#fff"/>
      <path id="Path_17" data-name="Path 17" d="M142.124,339.036a7.161,7.161,0,0,1-2.422-.422l-18.058-6.506a5.614,5.614,0,0,1,2.943-10.8l18.862,3.554h0a7.149,7.149,0,0,1-1.324,14.174Zm-18.573-15.049a2.852,2.852,0,0,0-2.7,1.942,2.822,2.822,0,0,0,1.731,3.568L140.642,336a4.375,4.375,0,0,0,5.739-3.105,4.376,4.376,0,0,0-3.447-5.309l-18.863-3.554A2.8,2.8,0,0,0,123.551,323.987Z" transform="translate(-81.419 -264.954)" fill="#fff"/>
      <path id="Path_18" data-name="Path 18" d="M95.146,338.023a7.148,7.148,0,0,1-6-11.041,7.078,7.078,0,0,1,4.672-3.133l18.863-3.554a5.614,5.614,0,0,1,2.943,10.8L97.568,337.6A7.145,7.145,0,0,1,95.146,338.023Zm-.811-11.447a4.375,4.375,0,0,0-3.447,5.308,4.372,4.372,0,0,0,5.738,3.105l18.058-6.506a2.838,2.838,0,0,0-1.487-5.46Z" transform="translate(-87.992 -265.176)" fill="#fff"/>
      <path id="Path_19" data-name="Path 19" d="M132.756,316.935a1.389,1.389,0,0,1-1.294-.885,3.334,3.334,0,0,0-1.987-1.933l-6.619-2.364a1.388,1.388,0,1,1,.934-2.614l6.617,2.364a6.108,6.108,0,0,1,3.64,3.54,1.39,1.39,0,0,1-1.293,1.892Z" transform="translate(-80.539 -267.622)" fill="#fff"/>
      <path id="Path_20" data-name="Path 20" d="M101.521,316.361a1.39,1.39,0,0,1-1.261-1.966,6.141,6.141,0,0,1,3.581-3.242l5.9-2.02a1.387,1.387,0,0,1,.9,2.626l-5.9,2.02a3.35,3.35,0,0,0-1.955,1.77A1.387,1.387,0,0,1,101.521,316.361Z" transform="translate(-85.326 -267.622)" fill="#fff"/>
      <path id="Path_21" data-name="Path 21" d="M101.486,349.242h-.078a1.389,1.389,0,0,1-1.31-1.462l.348-6.332a1.388,1.388,0,0,1,2.772.151l-.348,6.333A1.389,1.389,0,0,1,101.486,349.242Z" transform="translate(-85.334 -260.799)" fill="#fff"/>
      <path id="Path_22" data-name="Path 22" d="M130.763,349.242a1.389,1.389,0,0,1-1.385-1.311l-.348-6.333a1.388,1.388,0,0,1,2.772-.151l.348,6.332a1.389,1.389,0,0,1-1.31,1.462Z" transform="translate(-78.981 -260.799)" fill="#fff"/>
    </g>
    <path id="Path_23" data-name="Path 23" d="M90.079,304.369a14.756,14.756,0,1,1,7.2-27.639,1.388,1.388,0,0,1-.562,2.594,10.326,10.326,0,0,0,0,20.578,1.387,1.387,0,0,1,.562,2.593A14.771,14.771,0,0,1,90.079,304.369Zm0-26.738a11.981,11.981,0,1,0,1.879,23.815,13.107,13.107,0,0,1,0-23.666A11.932,11.932,0,0,0,90.079,277.631Z" transform="translate(-75.323 -274.857)" fill="#fff"/>
  </g>
</svg>
