<?xml version="1.0" encoding="utf-8"?>
<!-- Generator: Adobe Illustrator 24.0.3, SVG Export Plug-In . SVG Version: 6.00 Build 0)  -->
<svg version="1.1" id="Layer_1" xmlns="http://www.w3.org/2000/svg" xmlns:xlink="http://www.w3.org/1999/xlink" x="0px" y="0px"
	 viewBox="0 0 150 150" style="enable-background:new 0 0 150 150;" xml:space="preserve">
<style type="text/css">
	.st0{fill:#195028;}
</style>
<g>
	<g>
		<path class="st0" d="M141.08,85.23l0.01-0.01c0,0-0.01-0.01-0.01-0.01l-6.37-34.04l-0.93-0.65c-11.61-8.2-24.57-9.86-29.9-10.19
			c-0.09-0.01-0.14-0.07-0.16-0.15l-1.65-8.83c-0.01-0.07-0.07-0.13-0.14-0.15l-14.94-3.67c-12.99-2.42-25.95,0.49-36.56,8.2
			c-1.25,0.9-2.57,1.75-3.93,2.52l-0.43,0.22c-8.35,4.63-18.12,6.22-27.45,4.51L1.3,38.74c-0.13-0.03-0.26,0.08-0.23,0.22
			l13.8,73.68c0.01,0.07,0.07,0.13,0.14,0.15l14.94,3.67l0.07,0.02c12.72,2.81,25.84-0.41,36.35-8.11c2.23-1.63,4.6-3.01,7.07-4.16
			c0.11-0.05,0.25,0.01,0.27,0.13l3.56,15.29l2.77-0.72c31.91-8.28,63.7,5.89,64.02,6.04l4.88,2.21L141.08,85.23z M111.51,80.51
			c5.62,1.03,17.34,3.59,24.45,7.95c0.05,0.03,0.08,0.08,0.09,0.13l2.38,12.72c0.03,0.15-0.12,0.27-0.26,0.2
			c-8.33-4.08-19.33-6.33-24.2-7.18c-0.08-0.01-0.12-0.07-0.14-0.15l-2.52-13.44C111.29,80.61,111.38,80.49,111.51,80.51z
			 M110.14,74.49l-2.21-11.81c-0.02-0.13,0.07-0.25,0.21-0.23c6.41,1.24,18.17,4.03,24.58,8.65c0.04,0.03,0.07,0.07,0.08,0.13
			l1.93,10.3c-9.06-4.17-20.71-6.29-24.44-6.89C110.2,74.63,110.16,74.57,110.14,74.49z M129.58,54.39
			c0.04,0.03,0.08,0.08,0.09,0.13l1.75,9.36c-8.38-4.18-19.61-6.48-24.52-7.33c-0.08-0.01-0.12-0.07-0.14-0.15l-1.9-10.16
			c-0.02-0.12,0.06-0.24,0.19-0.23C110.28,46.52,120.4,48.28,129.58,54.39z M100.07,52.38l1.94,10.4c0.02,0.13-0.09,0.25-0.22,0.22
			l-8.55-1.59c-11.37-2.11-23.12,0-33.03,5.95l-1.42,0.85c-0.11,0.07-0.26,0-0.28-0.13l-1.92-10.23c-0.01-0.07,0.02-0.15,0.08-0.19
			l0.56-0.4c9.23-6.57,20.74-9.12,31.89-7.05l10.8,2.01C99.99,52.24,100.05,52.3,100.07,52.38z M54.6,39.93
			c9-6.44,20.26-8.86,31.11-6.7l0,0l11.17,2.74c0.07,0.02,0.13,0.08,0.14,0.15l1.87,9.99l-8.9-1.66
			c-5.75-1.08-11.59-1.08-17.35-0.01c-5.47,1.02-10.7,3.02-15.55,5.93l-1.71,1.03l-1.96-10.5c-0.01-0.07,0.02-0.15,0.08-0.19
			L54.6,39.93z M17.01,91.76c-0.08-0.01-0.14-0.07-0.15-0.15l-1.99-10.67l8.9,1.66c5.78,1.08,11.61,1.09,17.33,0.02
			c6.46-1.21,12.53-3.74,18.03-7.53c0.27-0.17,0.49-0.32,0.7-0.48l0.37-0.26c9.18-6.65,20.84-9.28,31.9-7.21l10.99,2.04
			c0.08,0.01,0.14,0.07,0.15,0.15l2,10.67l-8.9-1.66c-5.76-1.07-11.59-1.08-17.33-0.01c-6.89,1.29-13.32,4.06-19.09,8.25
			c-8.31,6.03-18.22,8.72-28.25,7.74c-1.22-0.12-2.44-0.29-3.66-0.52L17.01,91.76z M63.09,103.54c-8.3,6.03-18.21,8.72-28.25,7.74
			c-1.18-0.12-2.37-0.28-3.55-0.5l-11.25-2.76c-0.07-0.02-0.13-0.08-0.14-0.15l-1.87-9.98l8.9,1.66c5.84,1.08,11.65,1.09,17.35,0.03
			c6.87-1.28,13.28-4.06,19.06-8.26c9.2-6.67,20.83-9.31,31.92-7.23l10.99,2.04c0.08,0.01,0.14,0.07,0.15,0.15l2.09,11.22
			l-8.84-2.17c-5.92-1.12-11.75-1.11-17.48-0.04C75.29,96.58,68.86,99.35,63.09,103.54z M98.3,110.78l17.62-5.46l-0.96-5.13
			c6.37,1.22,18.36,4.02,24.84,8.72c0.04,0.03,0.07,0.07,0.08,0.13l1.67,8.92C133.71,115.08,117.26,110.17,98.3,110.78z"/>
	</g>
</g>
<g>
</g>
<g>
</g>
<g>
</g>
<g>
</g>
<g>
</g>
<g>
</g>
</svg>
