<?xml version="1.0" encoding="utf-8"?>
<!-- Generator: Adobe Illustrator 24.0.3, SVG Export Plug-In . SVG Version: 6.00 Build 0)  -->
<svg version="1.1" id="Layer_1" xmlns="http://www.w3.org/2000/svg" xmlns:xlink="http://www.w3.org/1999/xlink" x="0px" y="0px"
	 viewBox="0 0 150 150" style="enable-background:new 0 0 150 150;" xml:space="preserve">
<style type="text/css">
	.st0{fill:#195028;}
</style>
<g>
	<g>
		<g>
			<path class="st0" d="M7.09,112.44c-0.98-0.55-1.38-1.76-0.92-2.77c1.37-3,2.09-4.5,12.23-1.49c0.09,0.03,0.19,0.06,0.3,0.09
				l22.15,8.26c0.66,0.2,1.4,0.35,2.17,0.46c0.34,0.05,0.7,0.07,1.05,0.11c0.45,0.04,0.89,0.08,1.36,0.1
				c0.46,0.02,0.93,0.02,1.41,0.02c0.42,0,0.84-0.01,1.27-0.03c0.51-0.02,1.02-0.04,1.55-0.08c0.54-0.04,1.1-0.09,1.66-0.15
				c0.43-0.04,0.84-0.07,1.28-0.13c1.06-0.13,2.14-0.28,3.24-0.45c0.14-0.02,0.28-0.05,0.42-0.07c1.1-0.18,2.21-0.37,3.32-0.57
				c0.08-0.01,0.16-0.03,0.25-0.05c0.45-0.08,0.9-0.16,1.35-0.25c0.93-0.18,1.86-0.37,2.78-0.56l0.97-0.21
				c0.88-0.18,1.75-0.36,2.64-0.55c0.42-0.09,0.83-0.18,1.22-0.26c1.27-0.2,2.27-0.44,2.78-0.57l22.27-4.33
				c6.89-1.34,7.57,2.12,7.79,3.26c0.25,1.27,1.48,2.1,2.74,1.85c1.27-0.25,2.1-1.47,1.85-2.74c-1.12-5.76-6.08-8.36-13.27-6.96
				l-22.32,4.34c-0.73,0.14-1.57,0.32-2.48,0.51c-0.01,0-0.03-0.01-0.04,0c-0.47,0.07-0.99,0.14-1.53,0.19
				c-0.09,0.01-0.18,0.01-0.27,0.02c-0.18,0.01-0.36,0.02-0.51,0.03c-0.65,0.03-1.27,0.03-1.83-0.01c-0.03,0-0.05,0-0.07-0.01
				c-0.24-0.02-0.47-0.05-0.69-0.08c-0.18-0.03-0.31-0.06-0.42-0.08c-0.05-0.01-0.1-0.02-0.14-0.03c-0.23-0.06-0.36-0.11-0.48-0.15
				c-0.05-0.02-0.11-0.04-0.16-0.07c-0.12-0.06-0.22-0.1-0.29-0.15c-0.02-0.01-0.02-0.02-0.04-0.03c-0.11-0.07-0.22-0.14-0.29-0.23
				c-0.1-0.12-0.17-0.29-0.21-0.49c0-0.02-0.01-0.05-0.01-0.09c-0.03-0.2-0.03-0.42,0-0.67c0-0.01,0-0.03,0-0.05
				c0.03-0.25,0.1-0.54,0.18-0.84l0.06-0.22c0.08-0.26,0.19-0.54,0.3-0.83c0.03-0.08,0.05-0.15,0.08-0.23
				c1.22-2.89,3.34-5.29,6.03-6.93c1.62-0.98,3.44-1.7,5.39-2.08l8.96-1.74c0.85-0.17,1.69-0.38,2.52-0.62
				c0.48-0.14,0.96-0.29,1.44-0.46c0.37-0.13,0.73-0.27,1.09-0.42c0.16-0.06,0.31-0.11,0.47-0.18l0.34-0.14
				c0.04-0.02,0.08-0.04,0.12-0.06c0.94-0.41,1.85-0.88,2.73-1.39c0.04-0.02,0.07-0.04,0.11-0.06l0.49-0.29
				c0.06-0.03,0.1-0.08,0.15-0.11c0.88-0.55,1.72-1.13,2.52-1.77c0.01-0.01,0.02-0.01,0.02-0.02l0.27-0.23
				c0.07-0.06,0.13-0.11,0.2-0.17c0.41-0.35,0.82-0.7,1.2-1.07c0.45-0.43,0.87-0.85,1.24-1.26c0.21-0.23,0.46-0.43,0.69-0.63
				c0.09-0.07,0.17-0.14,0.28-0.22c0.02-0.01,0.03-0.02,0.05-0.04c0.23-0.18,0.47-0.34,0.71-0.49c0.02-0.01,0.03-0.03,0.05-0.04
				c6.34-3.79,18.57,0.36,24.23,2.98l7.37,37.9l-29.87,5.81c-4.46,0.87-9.02,1.4-13.56,1.59l-31.18,1.31
				c-0.81,0.16-1.66,0.22-2.53,0.2c-2.1,0.1-4.06-0.47-5.88-1.64l-0.21-0.12L7.09,112.44 M1.92,107.72
				c-1.49,3.24-0.19,7.13,2.96,8.85l0.06,0.03l40.1,20.35c2.63,1.66,5.51,2.47,8.32,2.32c1.02,0.03,2.14-0.05,3.23-0.25l30.66-1.26
				c4.77-0.2,9.57-0.76,14.26-1.67l29.87-5.81l1.34,6.89l16.08-3.13L137.19,74.3l-16.08,3.13l0.94,4.82
				c-3.32-1.3-8.22-2.91-13.2-3.46c0.63-0.29,1.11-0.83,1.29-1.51c0.19-0.7,0.03-1.45-0.41-2.03l-7.36-9.58
				c-0.69-0.9-1.93-1.18-2.94-0.65c-8.39,4.38-20.78,10.69-23.08,11.52c-6.33-0.34-16.17-0.78-20.55-0.56
				c-0.78-1.48-1.68-3.81-2.57-6.76c0.5-2.87,1.76-5.57,3.75-8.03c10.78-3.07,17.36-14.14,14.73-25.14l-0.54-2.28l-2.28,0.54
				c-10.92,2.62-17.79,13.35-15.79,24.27c-0.69,0.88-1.3,1.79-1.84,2.72c-1.17-5.66-2.03-12.25-2.11-18.87l0.01-0.01
				c1.76-2.63,5.41-8.11,9.08-10.12c1.14-0.62,1.56-2.04,0.94-3.17c-0.62-1.14-2.05-1.55-3.17-0.94c-2.4,1.31-4.6,3.5-6.47,5.75
				c0.62-5.79,2.05-11.3,4.64-15.88c0.64-1.12,0.24-2.55-0.88-3.19c-1.13-0.64-2.55-0.25-3.19,0.88c-1.4,2.47-2.5,5.19-3.35,8.05
				c-2.42-3.69-5.25-6.94-7.56-8.47c-1.08-0.71-2.53-0.42-3.24,0.66c-0.71,1.08-0.42,2.53,0.66,3.24c2.56,1.7,6.34,6.68,8.64,11.32
				c-0.87,5.54-1.01,11.38-0.66,17.05c-2.17-3.53-4.65-7.07-7.46-9.56C34.04,24.6,20.79,15.86,7.13,18.52l-2.3,0.45l0.45,2.3
				c2.63,13.53,15.48,22.5,28.98,20.53c3.37,3.11,6.54,8.56,8.91,12.63c1.03,1.78,1.94,3.33,2.75,4.54
				c1.39,7.99,3.51,14.79,5.47,18.69c-1.07,0.95-2.11,2.22-3.23,3.61c-1.03,1.28-2.96,3.67-3.76,3.89l-18.82,3.68
				c-2.23,0.43-5.27,3.95-7.43,6.83c-0.27,0.36-0.43,0.79-0.46,1.23c-0.19,2.62-0.33,4.59-0.42,6.1
				C8.2,100.66,4.59,101.91,1.92,107.72"/>
		</g>
	</g>
</g>
<g>
</g>
<g>
</g>
<g>
</g>
<g>
</g>
<g>
</g>
<g>
</g>
</svg>
