<?xml version="1.0" encoding="utf-8"?>
<!-- Generator: Adobe Illustrator 24.0.3, SVG Export Plug-In . SVG Version: 6.00 Build 0)  -->
<svg version="1.1" id="Layer_1" xmlns="http://www.w3.org/2000/svg" xmlns:xlink="http://www.w3.org/1999/xlink" x="0px" y="0px"
	 viewBox="0 0 150 150" style="enable-background:new 0 0 150 150;" xml:space="preserve">
<style type="text/css">
	.st0{fill:#195028;}
</style>
<g>
	<g>
		<path class="st0" d="M95.6,145.59v-17.09l24.81,0V95.4h17.7c-0.09-0.37,1.11,4.43-9.71-38.74C125.33,24.95,96.44,0.24,62.43,5.01
			C37.97,8.44,17.97,27.77,13.78,52.03c-3.24,18.79,2.44,37.28,15.6,50.71c5.37,5.49,8.33,12.67,8.33,20.24v22.6L95.6,145.59
			L95.6,145.59z M35.28,96.96C24.01,85.44,19.14,69.58,21.93,53.44c3.58-20.76,20.71-37.31,41.65-40.24
			c29.35-4.11,54.31,17.34,56.65,44.86l0.01,0.11c0.01,0.1,7.27,28.93,7.28,28.96h-15.38v33.09l-24.81,0v17.09H45.97v-14.33
			C45.97,113.24,42.18,104,35.28,96.96z"/>
	</g>
	<g>
		<path class="st0" d="M70.79,103.68c13.41,0,24.37-10.69,24.8-24c7.42-4.29,12.42-12.32,12.42-21.49
			c0-13.68-11.13-24.81-24.81-24.81c-4.52,0-8.76,1.21-12.41,3.33c-3.65-2.12-7.89-3.33-12.41-3.33
			c-13.68,0-24.81,11.13-24.81,24.81c0,9.17,5,17.2,12.42,21.49C46.42,92.98,57.38,103.68,70.79,103.68z M59.82,66.5
			c0.95,2.66,2.34,5.12,4.09,7.28c-1.73,0.61-3.59,0.95-5.53,0.95c-1.2,0-2.37-0.13-3.5-0.38C55.75,71.28,57.49,68.56,59.82,66.5z
			 M70.79,47.26c1.75,1.99,3.04,4.4,3.68,7.06c-1.2-0.18-2.43-0.27-3.68-0.27s-2.48,0.09-3.68,0.27
			C67.75,51.66,69.04,49.25,70.79,47.26z M86.7,74.35c-1.13,0.24-2.3,0.38-3.5,0.38c-1.94,0-3.8-0.34-5.53-0.95
			c1.75-2.16,3.14-4.61,4.09-7.28C84.09,68.56,85.83,71.28,86.7,74.35z M70.79,62.32c1.2,0,2.37,0.13,3.5,0.38
			c-0.68,2.4-1.9,4.59-3.5,6.41c-1.61-1.83-2.82-4.01-3.5-6.41C68.41,62.45,69.59,62.32,70.79,62.32z M70.79,95.4
			c-7.79,0-14.34-5.42-16.08-12.68c1.2,0.18,2.43,0.27,3.68,0.27c4.52,0,8.76-1.21,12.41-3.33C74.44,81.78,78.68,83,83.2,83
			c1.25,0,2.48-0.09,3.68-0.27C85.13,89.99,78.58,95.4,70.79,95.4z M99.74,58.18c0,4.91-2.16,9.33-5.57,12.37
			c-1.99-5.58-5.93-10.25-10.99-13.18c-0.18-5.59-2.22-10.71-5.51-14.78c1.73-0.61,3.59-0.95,5.53-0.95
			C92.32,41.64,99.74,49.06,99.74,58.18z M58.38,41.64c1.94,0,3.8,0.34,5.53,0.95c-3.29,4.07-5.33,9.19-5.51,14.78
			c-5.06,2.93-9,7.6-10.99,13.18c-3.41-3.03-5.57-7.45-5.57-12.37C41.84,49.06,49.26,41.64,58.38,41.64z"/>
	</g>
</g>
<g>
</g>
<g>
</g>
<g>
</g>
<g>
</g>
<g>
</g>
<g>
</g>
</svg>
