<svg id="Group_13" data-name="Group 13" xmlns="http://www.w3.org/2000/svg" width="128.776" height="128.776" viewBox="0 0 128.776 128.776">
  <ellipse id="Ellipse_11" data-name="Ellipse 11" cx="64.388" cy="64.388" rx="64.388" ry="64.388" transform="translate(0 0)" fill="#4eaa41"/>
  <g id="Group_12" data-name="Group 12" transform="translate(31.761 19.532)">
    <g id="Group_11" data-name="Group 11">
      <path id="Path_29" data-name="Path 29" d="M393.37,290.144a9.253,9.253,0,1,1,9.253-9.253A9.264,9.264,0,0,1,393.37,290.144Zm0-15.731a6.478,6.478,0,1,0,6.477,6.478A6.485,6.485,0,0,0,393.37,274.412Z" transform="translate(-356.821 -271.638)" fill="#fff"/>
      <path id="Path_30" data-name="Path 30" d="M416.756,311.717H403.57a6.908,6.908,0,0,1-5.126-2.281l-9.636-10.693a1.388,1.388,0,0,1,2.062-1.859l9.636,10.694a4.131,4.131,0,0,0,3.064,1.363h13.186a1.592,1.592,0,0,0,0-3.183H404.2a1.387,1.387,0,0,1-1.138-.593l-10.38-14.856a1.388,1.388,0,0,1,2.275-1.59l9.966,14.264h11.83a4.366,4.366,0,1,1,0,8.732Z" transform="translate(-355.869 -268.017)" fill="#fff"/>
      <path id="Path_31" data-name="Path 31" d="M371.79,318.781a4.633,4.633,0,0,1-1.018-.115,4.555,4.555,0,0,1-3.384-5.644l3.345-12.219a5.489,5.489,0,0,1,1.345-2.361c.015-.016.03-.03.046-.045l14.308-13.484a1.387,1.387,0,1,1,1.9,2.02l-14.281,13.459a2.711,2.711,0,0,0-.644,1.144l-3.345,12.219a1.779,1.779,0,0,0,3.432.94l3.131-11.4a1.389,1.389,0,0,1,.6-.811l5.619-3.5a1.387,1.387,0,1,1,1.466,2.355l-5.156,3.211-2.987,10.882A4.549,4.549,0,0,1,371.79,318.781Z" transform="translate(-360.53 -268.806)" fill="#fff"/>
      <path id="Path_32" data-name="Path 32" d="M414.875,358.222a5.18,5.18,0,0,1-4.2-2.131L396.99,337.141l-15.717-13.315a10.073,10.073,0,0,1-3.344-9.794l5.793-28.385a1.388,1.388,0,0,1,2.72.555l-5.8,28.4a7.3,7.3,0,0,0,2.421,7.109l15.846,13.425a1.453,1.453,0,0,1,.228.246l13.782,19.087a2.4,2.4,0,0,0,3.167.644,2.384,2.384,0,0,0,.7-3.427L403.133,332.6l-13.565-13.634a1.388,1.388,0,0,1,1.967-1.957l13.644,13.713a1.392,1.392,0,0,1,.145.171l13.728,19.178a5.16,5.16,0,0,1-1.523,7.417A5.114,5.114,0,0,1,414.875,358.222Z" transform="translate(-358.228 -268.806)" fill="#fff"/>
      <path id="Path_33" data-name="Path 33" d="M367,351.361a5.257,5.257,0,0,1-3.942-8.737L377.915,325.8l3.687-7.872a1.388,1.388,0,1,1,2.513,1.177l-3.771,8.053a1.36,1.36,0,0,1-.217.331l-14.985,16.974a2.468,2.468,0,0,0,.061,3.353,2.483,2.483,0,0,0,3.633-.037l16.535-18.128,3.147-5.7a1.388,1.388,0,0,1,2.431,1.342l-3.226,5.845a1.368,1.368,0,0,1-.19.266l-16.645,18.247a5.272,5.272,0,0,1-3.832,1.715Z" transform="translate(-361.735 -261.65)" fill="#fff"/>
      <path id="Path_34" data-name="Path 34" d="M391.36,319.586a1.392,1.392,0,0,1-1.368-1.629l3.073-17.439A1.388,1.388,0,0,1,395.8,301l-3.073,17.439A1.388,1.388,0,0,1,391.36,319.586Z" transform="translate(-355.536 -265.549)" fill="#fff"/>
    </g>
  </g>
</svg>
