<svg id="Group_18" data-name="Group 18" xmlns="http://www.w3.org/2000/svg" width="128.776" height="128.776" viewBox="0 0 128.776 128.776">
  <g id="Group_16" data-name="Group 16" transform="translate(0 0)">
    <ellipse id="Ellipse_13" data-name="Ellipse 13" cx="64.388" cy="64.388" rx="64.388" ry="64.388" fill="#4eaa41"/>
  </g>
  <g id="Group_17" data-name="Group 17" transform="translate(23.726 16.077)">
    <path id="Path_37" data-name="Path 37" d="M669.071,268.8a9.125,9.125,0,1,0,9.126,9.126A9.136,9.136,0,0,0,669.071,268.8Zm0,15.026a5.9,5.9,0,1,1,5.9-5.9A5.908,5.908,0,0,1,669.071,283.831Z" transform="translate(-628.495 -268.805)" fill="#fff"/>
    <path id="Path_38" data-name="Path 38" d="M713.867,313.183h-1.139V306.2a3.774,3.774,0,0,0-3.77-3.771h-5.589a3.774,3.774,0,0,0-3.77,3.771v6.981h-5.031V296.848a12.131,12.131,0,0,0-12.131-12.153H667.009a12.145,12.145,0,0,0-12.11,12.153v16.335H650V306.2a3.754,3.754,0,0,0-3.728-3.771h-5.588a3.775,3.775,0,0,0-3.771,3.771v6.981h-1.139a1.612,1.612,0,1,0,0,3.225h1.139v6.981a3.754,3.754,0,0,0,3.771,3.728h5.588A3.733,3.733,0,0,0,650,323.388v-6.981h13.284v39.027a6.435,6.435,0,0,0,3.257,5.634,6.565,6.565,0,0,0,7.72-.843l.5-.461.512.452a7.071,7.071,0,0,0,1.126.809,6.643,6.643,0,0,0,6.571,0,6.375,6.375,0,0,0,3.216-5.588V316.407H699.6v6.981a3.753,3.753,0,0,0,3.77,3.728h5.589a3.753,3.753,0,0,0,3.77-3.728v-6.981h1.139a1.612,1.612,0,1,0,0-3.225Zm-67.1,10.709h-6.638V305.656h6.638Zm36.192,31.555a3.141,3.141,0,0,1-1.611,2.792,3.32,3.32,0,0,1-3.332,0,3.155,3.155,0,0,1-1.7-2.754V324.4a1.612,1.612,0,0,0-3.225,0v31.07a3.151,3.151,0,0,1-1.611,2.807,3.332,3.332,0,0,1-3.332,0,3.241,3.241,0,0,1-1.654-2.839V316.407h16.458Zm8.381-42.264h-5.156V296.805a1.612,1.612,0,1,0-3.224,0v16.378H666.505v-16.42a1.613,1.613,0,0,0-3.226,0v16.42h-5.156V296.848a8.917,8.917,0,0,1,8.886-8.928h15.428a8.907,8.907,0,0,1,8.908,8.907ZM709.5,323.892h-6.682V305.656H709.5Z" transform="translate(-634.157 -265.316)" fill="#fff"/>
  </g>
</svg>
