<svg id="Group_15" data-name="Group 15" xmlns="http://www.w3.org/2000/svg" width="128.776" height="128.776" viewBox="0 0 128.776 128.776">
  <ellipse id="Ellipse_12" data-name="Ellipse 12" cx="64.388" cy="64.388" rx="64.388" ry="64.388" transform="translate(0 0)" fill="#4eaa41"/>
  <g id="Group_14" data-name="Group 14" transform="translate(41.77 14.192)">
    <path id="Path_35" data-name="Path 35" d="M520.733,278.166a8.385,8.385,0,1,0,8.386,8.386A8.394,8.394,0,0,0,520.733,278.166Zm0,13.976a5.591,5.591,0,1,1,5.592-5.591A5.6,5.6,0,0,1,520.733,292.142Z" transform="translate(-508.811 -264.864)" fill="#fff"/>
    <path id="Path_36" data-name="Path 36" d="M517.68,367.239a6.463,6.463,0,0,0,2.261.412,6.323,6.323,0,0,0,5.883-4.016l11.443-30.65,4.776,29.486a6.314,6.314,0,0,0,2.625,4.031,6.465,6.465,0,0,0,4.7,1.06,6.319,6.319,0,0,0,5.253-7.143l-.012-.077-4.421-27.5c-.038-.233-.071-.538-.089-.84a163.579,163.579,0,0,0-5.875-34.287,3.081,3.081,0,0,1-.077-1.187l.006-.06,1.365-12.552a12.054,12.054,0,0,0-7.276-12.248L528.5,267.51h0a5.175,5.175,0,0,0-6.4,2.861,5.315,5.315,0,0,0,2.321,6.7l.146.074,9.559,4.1a1.628,1.628,0,0,1,1,1.57l-.006.073-1.349,12.46a1.5,1.5,0,0,1-1.115,1.283l-6.755,1.7a6.234,6.234,0,0,0-2.132,1.05l-.326.254-10.515,8.255a9.106,9.106,0,0,0-1.654,12.625l8.4,11.062a5.123,5.123,0,0,0,2.81,1.776l1.133.272L513.89,359.11a6.4,6.4,0,0,0,3.79,8.13Zm7.813-59.446-5.655,4.415a4.229,4.229,0,0,0-.737,5.942l6.474,8.47a1.434,1.434,0,0,1,.187,1.4l-.961,2.516-.545.115a2.426,2.426,0,0,1-2.4-.826l-8.358-11a6.3,6.3,0,0,1,1.154-8.738l10.792-8.471a3.411,3.411,0,0,1,1.263-.609l6.664-1.681a4.3,4.3,0,0,0,3.176-3.676l1.357-12.541a4.439,4.439,0,0,0-2.676-4.434l-.083-.035-9.463-4.072a2.482,2.482,0,0,1-1.016-3.105,2.371,2.371,0,0,1,2.867-1.326l.155.052,9.456,4.037a9.208,9.208,0,0,1,5.582,9.518l-1.35,12.415a6.165,6.165,0,0,0,.059,1.881l.141.071v.491a160.685,160.685,0,0,1,5.734,33.566c.022.361.061.726.109,1.038l.012.072,4.416,27.472a3.55,3.55,0,0,1-2.923,4.047,3.629,3.629,0,0,1-4.134-2.846L542.236,346.2l-1.886-11.625-.715-4.4c-.111-.685-.467-2.682-.467-2.682-.572-1.618-2-1.743-2.685-.4h0l-13.247,35.486a3.561,3.561,0,0,1-4.579,2.04,3.629,3.629,0,0,1-2.15-4.536l11.831-30.977a22.6,22.6,0,0,0,2.212-10.558,21.136,21.136,0,0,0-3-10.394l-.129-.183A1.232,1.232,0,0,0,525.493,307.794Zm1.81,16.487-5.98-7.822a1.457,1.457,0,0,1,.235-2.048l4.414-3.448.5,1.281a19.685,19.685,0,0,1,1.137,9.548Z" transform="translate(-509.447 -267.259)" fill="#fff"/>
  </g>
</svg>
