<svg id="Group_10" data-name="Group 10" xmlns="http://www.w3.org/2000/svg" width="128.776" height="128.776" viewBox="0 0 128.776 128.776">
  <ellipse id="Ellipse_10" data-name="Ellipse 10" cx="64.388" cy="64.388" rx="64.388" ry="64.388" transform="translate(0 0)" fill="#4eaa41"/>
  <g id="Group_9" data-name="Group 9" transform="translate(21.854 17.788)">
    <path id="Path_24" data-name="Path 24" d="M251.341,296a12.9,12.9,0,1,1,12.9-12.9A12.912,12.912,0,0,1,251.341,296Zm0-23.019A10.122,10.122,0,1,0,261.462,283.1,10.133,10.133,0,0,0,251.341,272.983Z" transform="translate(-208.763 -270.208)" fill="#fff"/>
    <path id="Path_25" data-name="Path 25" d="M249.951,341.655a5.342,5.342,0,0,1-1.335-10.511l.039-.01,14.01-3.221a3.192,3.192,0,0,0,2.427-3.754l-3.151-15.818a1.388,1.388,0,0,1,2.722-.543l3.151,15.818a5.955,5.955,0,0,1-4.527,7L249.3,333.834a2.566,2.566,0,0,0,1.055,5.015l20.722-3.2a5.322,5.322,0,0,0,4.486-5.859l-2.318-20.881a14.883,14.883,0,0,0-7.089-11.054l-6.363-3.822a1.388,1.388,0,0,1,1.429-2.379l6.362,3.822A17.677,17.677,0,0,1,276,308.6l2.318,20.881a8.09,8.09,0,0,1-6.82,8.908l-20.721,3.2A5.453,5.453,0,0,1,249.951,341.655Z" transform="translate(-207.407 -265.543)" fill="#fff"/>
    <path id="Path_26" data-name="Path 26" d="M244.558,329.479a1.454,1.454,0,0,1-.278-.028l-5.094-1.035a5.892,5.892,0,0,1-4.6-6.872l3.187-16.478a1.388,1.388,0,0,1,2.725.527l-3.187,16.478a3.108,3.108,0,0,0,2.425,3.626l5.094,1.034a1.388,1.388,0,0,1-.274,2.749Z" transform="translate(-209.633 -262.801)" fill="#fff"/>
    <path id="Path_27" data-name="Path 27" d="M252.814,341.417a1.376,1.376,0,0,1-.211-.016l-19.777-3.017A8.09,8.09,0,0,1,226,329.475l2.318-20.874a17.677,17.677,0,0,1,8.417-13.127l6.363-3.822a1.388,1.388,0,0,1,1.429,2.379l-6.363,3.822a14.887,14.887,0,0,0-7.089,11.054l-2.317,20.874a5.32,5.32,0,0,0,4.492,5.859l19.775,3.018a1.387,1.387,0,0,1-.207,2.759Z" transform="translate(-211.508 -265.543)" fill="#fff"/>
    <path id="Path_28" data-name="Path 28" d="M289,342.291H224.279a10.172,10.172,0,1,1,1.632-20.213l3.694.6a1.388,1.388,0,1,1-.445,2.739l-3.694-.6a7.4,7.4,0,1,0-1.187,14.7H289a7.4,7.4,0,1,0-1.187-14.7l-3.694.6a1.388,1.388,0,1,1-.445-2.739l3.694-.6A10.172,10.172,0,1,1,289,342.291Z" transform="translate(-214.107 -258.848)" fill="#fff"/>
  </g>
</svg>
